<?xml version="1.0" standalone="no"?><!DOCTYPE svg PUBLIC "-//W3C//DTD SVG 1.1//EN" "http://www.w3.org/Graphics/SVG/1.1/DTD/svg11.dtd"><svg t="1655469722424" class="icon" viewBox="0 0 1101 1024" version="1.1" xmlns="http://www.w3.org/2000/svg" p-id="3422" xmlns:xlink="http://www.w3.org/1999/xlink" width="215.0390625" height="200"><defs><style type="text/css">@font-face { font-family: feedback-iconfont; src: url("//at.alicdn.com/t/font_1031158_u69w8yhxdu.woff2?t=1630033759944") format("woff2"), url("//at.alicdn.com/t/font_1031158_u69w8yhxdu.woff?t=1630033759944") format("woff"), url("//at.alicdn.com/t/font_1031158_u69w8yhxdu.ttf?t=1630033759944") format("truetype"); }
</style></defs><path d="M331.790414 1016.76416a34.74919 34.74919 0 0 1-34.720589-34.74919v-111.855211H127.613898A120.463859 120.463859 0 0 1 7.150039 749.7245V268.441068A261.805832 261.805832 0 0 1 268.498268 7.092839H973.549324a120.435259 120.435259 0 0 1 120.406659 120.435258v481.283432a261.805832 261.805832 0 0 1-261.34823 261.34823H535.537929l-182.297397 139.482962a34.320188 34.320188 0 0 1-20.963915 7.15004zM78.107027 266.98246v482.71344a51.480282 51.480282 0 0 0 51.480282 51.480281h202.288906a34.74919 34.74919 0 0 1 34.77779 34.74919v75.704614l136.165345-104.27617a34.320188 34.320188 0 0 1 20.935314-7.150039h308.881689a190.419841 190.419841 0 0 0 190.419842-190.419841V127.585298a51.480282 51.480282 0 0 0-49.478271-50.936879H268.526869A190.419841 190.419841 0 0 0 78.078427 267.068261z m623.140208 179.952184a81.396045 81.396045 0 1 1 81.396045 81.396045 81.396045 81.396045 0 0 1-81.396045-81.310244z m-231.804268 0a81.396045 81.396045 0 1 1 81.367445 81.396045 81.367445 81.367445 0 0 1-81.396045-81.310244z m-232.34767 0a81.424645 81.424645 0 1 1 81.424645 81.396045 81.424645 81.424645 0 0 1-81.453246-81.310244z m464.151938 0z m-231.804268 0z" p-id="3423"></path></svg>